# xmcd
#
# Track frame offsets:
#	150
#	18122
#	39690
#	60082
#	77902
#	97032
#	111305
#	129190
#	150850
#	168300
#	184815
#	203202
#	231110
#
# Disc length: 3446 seconds
#
# Revision: 1
# Processed by: cddbd v1.5.2PL0 Copyright (c) Steve Scherf et al.
# Submitted via: EasyCDDAExtractor 15.3.0.1
#
DISCID=980d740d
DTITLE=Gisselle - Libre
DYEAR=2006
DGENRE=Latin
TTITLE0=Aventurero (Featuring Mr. P) (Reggaerengue)
TTITLE1=De Que Nos Vale
TTITLE2=Intrusa
TTITLE3=No Me Interesa (Merengue)
TTITLE4=Duele En El Alma
TTITLE5=Tu No Vales La Pena
TTITLE6=Libre (Merengue)
TTITLE7=Hasta Rompernos
TTITLE8=De Que Nos Vale (Merengue)
TTITLE9=Duele En El Alma (Merengue)
TTITLE10=No Tengo Ley (Gay Club Mix)
TTITLE11=Las Alas Del Amor
TTITLE12=Bonus Video - De Que Nos Vale (Balada)
EXTD=
EXTT0=
EXTT1=
EXTT2=
EXTT3=
EXTT4=
EXTT5=
EXTT6=
EXTT7=
EXTT8=
EXTT9=
EXTT10=
EXTT11=
EXTT12=
PLAYORDER=
